<svg xmlns="http://www.w3.org/2000/svg" xmlns:xlink="http://www.w3.org/1999/xlink" version="1.1" width="359pt" height="95pt" viewBox="0 0 359 95">
<g>
<path d="M0 0H359V95H0Z" fill="#ffffff"/>
<path transform="matrix(.98884,0,0,1,0,0)" stroke-width=".474346" stroke-linecap="round" stroke-linejoin="round" fill="none" stroke="#000000" d="M5.997 11.754H89.005008V94.762H5.997Z"/>
<path transform="matrix(.98884,0,0,1,0,0)" stroke-width=".474346" stroke-linecap="round" stroke-linejoin="round" fill="none" stroke="#000000" d="M97.877 11.516H180.889V94.528H97.877Z"/>
<path transform="matrix(.98884,0,0,1,0,0)" stroke-width=".474346" stroke-linecap="round" stroke-linejoin="round" fill="none" stroke="#000000" d="M189.952 11.563H272.96V94.575H189.952Z"/>
<path transform="matrix(.98884,0,0,1,0,0)" d="M40.301 37.426C38.01 37.426 35.814 38.336 34.194 39.953 32.574 41.574 31.666 43.77 31.666 46.063 31.666 47.582 32.069 49.074 32.831 50.387 28.885 52.188 26.353 56.121 26.353 60.453 26.353 63.391 27.518 66.207 29.596 68.285 31.67 70.359 34.486 71.527 37.425 71.527 38.741 71.523 40.045 71.289 41.277 70.828 43.11 75.016 47.246 77.723 51.817 77.727 54.874 77.727 57.801 76.516 59.962 74.355 62.119 72.195 63.332 69.266 63.332 66.211 63.332 63.371 62.281 60.629 60.385 58.516 63.766 56.512 65.84 52.871 65.84 48.941 65.84 45.984 64.667 43.148 62.577 41.059 60.488 38.969 57.651 37.797 54.696 37.797 51.888 37.797 49.186 38.855 47.124 40.766 45.488 38.656 42.972 37.426 40.301 37.426ZM40.301 37.426" fill="#b9c7df"/>
<path transform="matrix(.98884,0,0,1,0,0)" stroke-width=".575757" stroke-linecap="round" stroke-linejoin="round" fill="none" stroke="#738fbf" d="M40.301 37.426C38.01 37.426 35.814 38.336 34.194 39.953 32.574 41.574 31.666 43.77 31.666 46.063 31.666 47.582 32.069 49.074 32.831 50.387 28.885 52.188 26.353 56.121 26.353 60.453 26.353 63.391 27.518 66.207 29.596 68.285 31.67 70.359 34.486 71.527 37.425 71.527 38.741 71.523 40.045 71.289 41.277 70.828 43.11 75.016 47.246 77.723 51.817 77.727 54.874 77.727 57.801 76.516 59.962 74.355 62.119 72.195 63.332 69.266 63.332 66.211 63.332 63.371 62.281 60.629 60.385 58.516 63.766 56.512 65.84 52.871 65.84 48.941 65.84 45.984 64.667 43.148 62.577 41.059 60.488 38.969 57.651 37.797 54.696 37.797 51.888 37.797 49.186 38.855 47.124 40.766 45.488 38.656 42.972 37.426 40.301 37.426ZM40.301 37.426"/>
<path transform="matrix(.98884,0,0,1,0,0)" d="M40.301 46.063 36.165 38.48ZM40.301 46.063" fill="#4f72ad"/>
<path transform="matrix(.98884,0,0,1,0,0)" stroke-width=".575757" stroke-linecap="round" stroke-linejoin="round" fill="none" stroke="#738fbf" d="M40.301 46.063 36.165 38.48ZM40.301 46.063"/>
<path transform="matrix(.98884,0,0,1,0,0)" d="M54.696 48.938 64.165 43.059ZM54.696 48.938" fill="#4f72ad"/>
<path transform="matrix(.98884,0,0,1,0,0)" stroke-width=".575757" stroke-linecap="round" stroke-linejoin="round" fill="none" stroke="#738fbf" d="M54.696 48.938 64.165 43.059ZM54.696 48.938"/>
<path transform="matrix(.98884,0,0,1,0,0)" d="M37.425 60.453 27.008 64.211ZM37.425 60.453" fill="#4f72ad"/>
<path transform="matrix(.98884,0,0,1,0,0)" stroke-width=".575757" stroke-linecap="round" stroke-linejoin="round" fill="none" stroke="#738fbf" d="M37.425 60.453 27.008 64.211ZM37.425 60.453"/>
<path transform="matrix(.98884,0,0,1,0,0)" stroke-width=".575757" stroke-linecap="round" stroke-linejoin="round" fill="none" stroke="#738fbf" d="M51.817 66.211H63.332ZM51.817 66.211"/>
<path d="M37.008 58.316 39.121 60.453 37.008 62.594 34.895 60.453ZM37.008 58.316" fill="#4f72ad"/>
<path d="M39.852 43.922 41.965 46.059 39.852 48.199 37.738 46.059ZM39.852 43.922" fill="#4f72ad"/>
<path d="M54.086 46.801 56.199 48.938 54.086 51.078 51.973 48.938ZM54.086 46.801" fill="#4f72ad"/>
<path d="M51.238 64.074 53.352 66.211 51.238 68.348 49.125 66.211ZM51.238 64.074" fill="#4f72ad"/>
<path transform="matrix(.98884,0,0,1,0,0)" d="M132.186 37.188C129.895 37.188 127.699 38.098 126.079 39.719 124.459 41.336 123.551 43.535 123.551 45.824 123.551 47.344 123.954 48.836 124.712 50.148 120.77 51.949 118.237 55.883 118.234 60.219 118.234 63.152 119.403 65.969 121.477 68.047 123.555 70.125 126.371 71.289 129.306 71.289 130.622 71.289 131.929 71.051 133.162 70.59 134.995 74.777 139.131 77.488 143.701 77.492 146.755 77.488 149.686 76.277 151.843 74.117 154.004 71.957 155.217 69.027 155.217 65.973 155.217 63.133 154.166 60.395 152.27 58.281 155.651 56.273 157.721 52.633 157.725 48.703 157.725 45.746 156.552 42.914 154.462 40.824 152.372 38.734 149.536 37.559 146.581 37.559 143.772 37.559 141.07 38.621 139.008 40.527 137.373 38.422 134.857 37.188 132.186 37.188ZM132.186 37.188" fill="#b9c7df"/>
<path transform="matrix(.98884,0,0,1,0,0)" stroke-width=".575757" stroke-linecap="round" stroke-linejoin="round" fill="none" stroke="#738fbf" d="M132.186 37.188C129.895 37.188 127.699 38.098 126.079 39.719 124.459 41.336 123.551 43.535 123.551 45.824 123.551 47.344 123.954 48.836 124.712 50.148 120.77 51.949 118.237 55.883 118.234 60.219 118.234 63.152 119.403 65.969 121.477 68.047 123.555 70.125 126.371 71.289 129.306 71.289 130.622 71.289 131.929 71.051 133.162 70.59 134.995 74.777 139.131 77.488 143.701 77.492 146.755 77.488 149.686 76.277 151.843 74.117 154.004 71.957 155.217 69.027 155.217 65.973 155.217 63.133 154.166 60.395 152.27 58.281 155.651 56.273 157.721 52.633 157.725 48.703 157.725 45.746 156.552 42.914 154.462 40.824 152.372 38.734 149.536 37.559 146.581 37.559 143.772 37.559 141.07 38.621 139.008 40.527 137.373 38.422 134.857 37.188 132.186 37.188ZM132.186 37.188"/>
<path d="M127.863 58.078 129.98 60.219 127.863 62.355 125.75 60.219ZM127.863 58.078" fill="#4f72ad"/>
<path d="M130.711 43.688 132.824 45.824 130.711 47.961 128.598 45.824ZM130.711 43.688" fill="#4f72ad"/>
<path d="M144.945 46.566 147.059 48.703 144.945 50.84 142.832 48.703ZM144.945 46.566" fill="#4f72ad"/>
<path d="M142.098 63.836 144.211 65.977 142.098 68.113 139.984 65.977ZM142.098 63.836" fill="#4f72ad"/>
<path transform="matrix(.98884,0,0,1,0,0)" d="M224.257 37.234C221.969 37.234 219.773 38.145 218.153 39.766 216.534 41.387 215.621 43.582 215.621 45.875 215.621 47.395 216.024 48.887 216.787 50.199 212.84 51.996 210.312 55.934 210.308 60.266 210.308 63.203 211.473 66.02 213.551 68.098 215.625 70.172 218.442 71.34 221.381 71.34 222.696 71.336 224 71.102 225.232 70.641 227.065 74.828 231.201 77.535 235.776 77.539 238.829 77.539 241.757 76.324 243.917 74.168 246.074 72.008 247.287 69.078 247.287 66.023 247.287 63.184 246.24 60.441 244.34 58.328 247.722 56.324 249.796 52.684 249.796 48.754 249.796 45.797 248.622 42.961 246.533 40.871 244.443 38.781 241.606 37.609 238.652 37.609 235.843 37.609 233.141 38.668 231.079 40.578 229.443 38.469 226.927 37.234 224.257 37.234ZM224.257 37.234" fill="#b9c7df"/>
<path transform="matrix(.98884,0,0,1,0,0)" stroke-width=".575757" stroke-linecap="round" stroke-linejoin="round" fill="none" stroke="#738fbf" d="M224.257 37.234C221.969 37.234 219.773 38.145 218.153 39.766 216.534 41.387 215.621 43.582 215.621 45.875 215.621 47.395 216.024 48.887 216.787 50.199 212.84 51.996 210.312 55.934 210.308 60.266 210.308 63.203 211.473 66.02 213.551 68.098 215.625 70.172 218.442 71.34 221.381 71.34 222.696 71.336 224 71.102 225.232 70.641 227.065 74.828 231.201 77.535 235.776 77.539 238.829 77.539 241.757 76.324 243.917 74.168 246.074 72.008 247.287 69.078 247.287 66.023 247.287 63.184 246.24 60.441 244.34 58.328 247.722 56.324 249.796 52.684 249.796 48.754 249.796 45.797 248.622 42.961 246.533 40.871 244.443 38.781 241.606 37.609 238.652 37.609 235.843 37.609 233.141 38.668 231.079 40.578 229.443 38.469 226.927 37.234 224.257 37.234ZM224.257 37.234"/>
<path transform="matrix(.98884,0,0,1,0,0)" d="M224.261 45.871 219.868 38.152ZM224.261 45.871" fill="#4f72ad"/>
<path transform="matrix(.98884,0,0,1,0,0)" stroke-width=".575757" stroke-linecap="round" stroke-linejoin="round" fill="none" stroke="#738fbf" d="M224.261 45.871 219.868 38.152ZM224.261 45.871"/>
<path transform="matrix(.98884,0,0,1,0,0)" d="M238.652 48.75 248.271 42.629ZM238.652 48.75" fill="#4f72ad"/>
<path transform="matrix(.98884,0,0,1,0,0)" stroke-width=".575757" stroke-linecap="round" stroke-linejoin="round" fill="none" stroke="#738fbf" d="M238.652 48.75 248.271 42.629ZM238.652 48.75"/>
<path transform="matrix(.98884,0,0,1,0,0)" d="M221.381 60.266 210.865 64.293ZM221.381 60.266" fill="#4f72ad"/>
<path transform="matrix(.98884,0,0,1,0,0)" stroke-width=".575757" stroke-linecap="round" stroke-linejoin="round" fill="none" stroke="#738fbf" d="M221.381 60.266 210.865 64.293ZM221.381 60.266"/>
<path transform="matrix(.98884,0,0,1,0,0)" stroke-width=".575757" stroke-linecap="round" stroke-linejoin="round" fill="none" stroke="#738fbf" d="M235.776 66.023H247.287ZM235.776 66.023"/>
<path d="M218.91 58.129 221.023 60.266 218.91 62.402 216.797 60.266ZM218.91 58.129" fill="#4f72ad"/>
<path d="M221.758 43.734 223.871 45.871 221.758 48.012 219.641 45.871ZM221.758 43.734" fill="#4f72ad"/>
<path d="M235.988 46.613 238.102 48.75 235.988 50.891 233.875 48.75ZM235.988 46.613" fill="#4f72ad"/>
<path d="M233.145 63.887 235.258 66.023 233.145 68.16 231.027 66.023ZM233.145 63.887" fill="#4f72ad"/>
<path d="M34.02 36.832H37.008V39.852H34.02Z" fill="#8073b0"/>
<path d="M62.102 41.305H65.094V44.328H62.102Z" fill="#8073b0"/>
<path d="M61.168 64.699H64.156V67.722H61.168Z" fill="#8073b0"/>
<path d="M25.117 62.969H28.105V65.992008H25.117Z" fill="#8073b0"/>
<path d="M62.102 22.605H65.094V25.625H62.102Z" fill="#8073b0"/>
<path d="M71.883 54.238H74.875V57.260999H71.883Z" fill="#8073b0"/>
<path d="M31.078 15.957H34.065999V18.977H31.078Z" fill="#8073b0"/>
<path d="M10.297 19.813H13.289V22.836H10.297Z" fill="#8073b0"/>
<path d="M78.652 19.574H81.64V22.594H78.652Z" fill="#8073b0"/>
<path d="M72.52 34.547H75.507999V37.567H72.52Z" fill="#8073b0"/>
<path d="M42.699 24.398H45.687V27.421002H42.699Z" fill="#8073b0"/>
<path d="M20.723 45.695H23.715V48.718H20.723Z" fill="#8073b0"/>
<path d="M20.723 27.094H23.715V30.117H20.723Z" fill="#8073b0"/>
<path d="M126.836 45.102C126.836 45.934 126.168 46.613 125.34 46.613 124.516 46.613 123.848 45.934 123.848 45.102 123.848 44.266 124.516 43.59 125.34 43.59 126.168 43.59 126.836 44.266 126.836 45.102ZM126.836 45.102" fill="#bf5254"/>
<path d="M123.254 58.727C123.254 59.563 122.582 60.238 121.758 60.238 120.934 60.238 120.262 59.563 120.262 58.727 120.262 57.895 120.934 57.219 121.758 57.219 122.582 57.219 123.254 57.895 123.254 58.727ZM123.254 58.727" fill="#bf5254"/>
<path d="M140.57 43.543C140.57 44.379 139.898 45.055 139.074 45.055 138.25 45.055 137.582 44.379 137.582 43.543 137.582 42.711 138.25 42.035 139.074 42.035 139.898 42.035 140.57 42.711 140.57 43.543ZM140.57 43.543" fill="#bf5254"/>
<path d="M146.039 39.734C146.039 40.57 145.371 41.246 144.543 41.246 143.719 41.246 143.051 40.57 143.051 39.734 143.051 38.902 143.719 38.223 144.543 38.223 145.371 38.223 146.039 38.902 146.039 39.734ZM146.039 39.734" fill="#bf5254"/>
<path d="M137.75 60.105C137.75 60.938 137.078 61.617 136.254 61.617 135.43 61.617 134.762 60.938 134.762 60.105 134.762 59.27 135.43 58.594 136.254 58.594 137.078 58.594 137.75 59.27 137.75 60.105ZM137.75 60.105" fill="#bf5254"/>
<path d="M135.82 51.762C135.82 52.594 135.152 53.273 134.324 53.273 133.5 53.273 132.832 52.594 132.832 51.762 132.832 50.926 133.5 50.25 134.324 50.25 135.152 50.25 135.82 50.926 135.82 51.762ZM135.82 51.762" fill="#bf5254"/>
<path d="M151.434 63.105C151.434 63.941 150.766 64.617 149.938 64.617 149.113 64.617 148.445 63.941 148.445 63.105 148.445 62.27 149.113 61.594 149.938 61.594 150.766 61.594 151.434 62.27 151.434 63.105ZM151.434 63.105" fill="#bf5254"/>
<path d="M150.43 52.969C150.43 53.805 149.758 54.48 148.934 54.48 148.109 54.48 147.441 53.805 147.441 52.969 147.441 52.137 148.109 51.457 148.934 51.457 149.758 51.457 150.43 52.137 150.43 52.969ZM150.43 52.969" fill="#bf5254"/>
<path d="M144.176 55.75C144.176 56.582 143.508 57.262 142.684 57.262 141.855 57.262 141.188 56.582 141.188 55.75 141.188 54.914 141.855 54.238 142.684 54.238 143.508 54.238 144.176 54.914 144.176 55.75ZM144.176 55.75" fill="#bf5254"/>
<path d="M139.977 72.188C139.977 73.023 139.309 73.699 138.484 73.699 137.656 73.699 136.988 73.023 136.988 72.188 136.988 71.352 137.656 70.676 138.484 70.676 139.309 70.676 139.977 71.352 139.977 72.188ZM139.977 72.188" fill="#bf5254"/>
<path d="M132.266 66.086C132.266 66.922 131.598 67.598 130.773 67.598 129.945 67.598 129.277 66.922 129.277 66.086 129.277 65.254 129.945 64.574 130.773 64.574 131.598 64.574 132.266 65.254 132.266 66.086ZM132.266 66.086" fill="#bf5254"/>
<path d="M128.125 52.844C128.125 53.68 127.457 54.355 126.633 54.355 125.805 54.355 125.137 53.68 125.137 52.844 125.137 52.012 125.805 51.332 126.633 51.332 127.457 51.332 128.125 52.012 128.125 52.844ZM128.125 52.844" fill="#bf5254"/>
<path d="M112.715 39.066C112.715 39.898 112.043 40.574 111.219 40.574 110.395 40.574 109.723 39.898 109.723 39.066 109.723 38.23 110.395 37.555 111.219 37.555 112.043 37.555 112.715 38.23 112.715 39.066ZM112.715 39.066" fill="#8073b0"/>
<path d="M119.91 35.211C119.91 36.047 119.242 36.723 118.418 36.723 117.59 36.723 116.922 36.047 116.922 35.211 116.922 34.375 117.59 33.699 118.418 33.699 119.242 33.699 119.91 34.375 119.91 35.211ZM119.91 35.211" fill="#8073b0"/>
<path d="M123.633 25.172C123.633 26.008 122.965 26.684 122.137 26.684 121.313 26.684 120.645 26.008 120.645 25.172 120.645 24.34 121.313 23.664 122.137 23.664 122.965 23.664 123.633 24.34 123.633 25.172ZM123.633 25.172" fill="#8073b0"/>
<path d="M104.145 21.086C104.145 21.922 103.477 22.598 102.652 22.598 101.824 22.598 101.156 21.922 101.156 21.086 101.156 20.25 101.824 19.574 102.652 19.574 103.477 19.574 104.145 20.25 104.145 21.086ZM104.145 21.086" fill="#8073b0"/>
<path d="M106.242 34.598C106.242 35.43 105.574 36.109 104.746 36.109 103.922 36.109 103.254 35.43 103.254 34.598 103.254 33.762 103.922 33.086 104.746 33.086 105.574 33.086 106.242 33.762 106.242 34.598ZM106.242 34.598" fill="#8073b0"/>
<path d="M108.258 55.816C108.258 56.652 107.586 57.328 106.762 57.328 105.938 57.328 105.266 56.652 105.266 55.816 105.266 54.98 105.938 54.305 106.762 54.305 107.586 54.305 108.258 54.98 108.258 55.816ZM108.258 55.816" fill="#8073b0"/>
<path d="M105.531 68.285C105.531 69.117 104.859 69.797 104.035 69.797 103.211 69.797 102.543 69.117 102.543 68.285 102.543 67.449 103.211 66.773 104.035 66.773 104.859 66.773 105.531 67.449 105.531 68.285ZM105.531 68.285" fill="#8073b0"/>
<path d="M106.363 80.039C106.363 80.875 105.695 81.551 104.871 81.551 104.043 81.551 103.375 80.875 103.375 80.039 103.375 79.203 104.043 78.527 104.871 78.527 105.695 78.527 106.363 79.203 106.363 80.039ZM106.363 80.039" fill="#8073b0"/>
<path d="M112.059 82.918C112.059 83.754 111.387 84.43 110.563 84.43 109.738 84.43 109.066 83.754 109.066 82.918 109.066 82.082 109.738 81.406 110.563 81.406 111.387 81.406 112.059 82.082 112.059 82.918ZM112.059 82.918" fill="#8073b0"/>
<path d="M114.57 28.367C114.57 29.203 113.902 29.879 113.078 29.879 112.254 29.879 111.582 29.203 111.582 28.367 111.582 27.535 112.254 26.855 113.078 26.855 113.902 26.855 114.57 27.535 114.57 28.367ZM114.57 28.367" fill="#8073b0"/>
<path d="M136.547 25.672C136.547 26.508 135.879 27.184 135.055 27.184 134.227 27.184 133.559 26.508 133.559 25.672 133.559 24.836 134.227 24.16 135.055 24.16 135.879 24.16 136.547 24.836 136.547 25.672ZM136.547 25.672" fill="#8073b0"/>
<path d="M154.422 16.387C154.422 17.223 153.754 17.898 152.93 17.898 152.102 17.898 151.434 17.223 151.434 16.387 151.434 15.555 152.102 14.875 152.93 14.875 153.754 14.875 154.422 15.555 154.422 16.387ZM154.422 16.387" fill="#8073b0"/>
<path d="M121.379 83.492C121.379 84.328 120.711 85.004 119.883 85.004 119.059 85.004 118.391 84.328 118.391 83.492 118.391 82.66 119.059 81.984 119.883 81.984 120.711 81.984 121.379 82.66 121.379 83.492ZM121.379 83.492" fill="#8073b0"/>
<path d="M112.121 63.172C112.121 64.008 111.453 64.684 110.625 64.684 109.801 64.684 109.133 64.008 109.133 63.172 109.133 62.336 109.801 61.66 110.625 61.66 111.453 61.66 112.121 62.336 112.121 63.172ZM112.121 63.172" fill="#8073b0"/>
<path d="M118.965 64.242C118.965 65.078 118.293 65.754 117.469 65.754 116.645 65.754 115.973 65.078 115.973 64.242 115.973 63.41 116.645 62.73 117.469 62.73 118.293 62.73 118.965 63.41 118.965 64.242ZM118.965 64.242" fill="#8073b0"/>
<path d="M114.57 46.969C114.57 47.805 113.902 48.48 113.078 48.48 112.254 48.48 111.582 47.805 111.582 46.969 111.582 46.133 112.254 45.457 113.078 45.457 113.902 45.457 114.57 46.133 114.57 46.969ZM114.57 46.969" fill="#8073b0"/>
<path d="M127.867 38.105C127.867 38.938 127.195 39.617 126.371 39.617 125.547 39.617 124.875 38.938 124.875 38.105 124.875 37.27 125.547 36.594 126.371 36.594 127.195 36.594 127.867 37.27 127.867 38.105ZM127.867 38.105" fill="#8073b0"/>
<path d="M117.066 91.051C117.066 91.887 116.398 92.563 115.574 92.563 114.75 92.563 114.078 91.887 114.078 91.051 114.078 90.215 114.75 89.539 115.574 89.539 116.398 89.539 117.066 90.215 117.066 91.051ZM117.066 91.051" fill="#8073b0"/>
<path d="M133.043 90.715C133.043 89.879 132.375 89.203 131.547 89.203 130.723 89.203 130.055 89.879 130.055 90.715 130.055 91.547 130.723 92.227 131.547 92.227 132.375 92.227 133.043 91.547 133.043 90.715ZM133.043 90.715" fill="#8073b0"/>
<path d="M172.516 72.492C172.516 71.66 171.848 70.98 171.023 70.98 170.195 70.98 169.527 71.66 169.527 72.492 169.527 73.328 170.195 74.004 171.023 74.004 171.848 74.004 172.516 73.328 172.516 72.492ZM172.516 72.492" fill="#8073b0"/>
<path d="M175.598 89.395C175.598 88.559 174.93 87.883 174.105 87.883 173.277 87.883 172.609 88.559 172.609 89.395 172.609 90.23 173.277 90.906 174.105 90.906 174.93 90.906 175.598 90.23 175.598 89.395ZM175.598 89.395" fill="#8073b0"/>
<path d="M173.465 62.184C173.465 61.348 172.797 60.672 171.973 60.672 171.148 60.672 170.477 61.348 170.477 62.184 170.477 63.02 171.148 63.695 171.973 63.695 172.797 63.695 173.465 63.02 173.465 62.184ZM173.465 62.184" fill="#8073b0"/>
<path d="M174.535 35.211C174.535 34.375 173.867 33.699 173.039 33.699 172.215 33.699 171.547 34.375 171.547 35.211 171.547 36.047 172.215 36.723 173.039 36.723 173.867 36.723 174.535 36.047 174.535 35.211ZM174.535 35.211" fill="#8073b0"/>
<path d="M170.246 28.367C170.246 27.535 169.578 26.855 168.754 26.855 167.93 26.855 167.258 27.535 167.258 28.367 167.258 29.203 167.93 29.879 168.754 29.879 169.578 29.879 170.246 29.203 170.246 28.367ZM170.246 28.367" fill="#8073b0"/>
<path d="M164.09 78.066C164.09 78.902 163.418 79.578 162.594 79.578 161.77 79.578 161.102 78.902 161.102 78.066 161.102 77.23 161.77 76.555 162.594 76.555 163.418 76.555 164.09 77.23 164.09 78.066ZM164.09 78.066" fill="#8073b0"/>
<path d="M150.582 88.984C150.582 89.82 149.914 90.496 149.09 90.496 148.266 90.496 147.594 89.82 147.594 88.984 147.594 88.148 148.266 87.473 149.09 87.473 149.914 87.473 150.582 88.148 150.582 88.984ZM150.582 88.984" fill="#8073b0"/>
<path d="M159.27 59.461C159.27 60.297 158.602 60.973 157.777 60.973 156.953 60.973 156.281 60.297 156.281 59.461 156.281 58.629 156.953 57.949 157.777 57.949 158.602 57.949 159.27 58.629 159.27 59.461ZM159.27 59.461" fill="#8073b0"/>
<path d="M165.73 55.512C165.73 56.348 165.063 57.023 164.238 57.023 163.41 57.023 162.742 56.348 162.742 55.512 162.742 54.676 163.41 54 164.238 54 165.063 54 165.73 54.676 165.73 55.512ZM165.73 55.512" fill="#8073b0"/>
<path d="M170.246 43.32C170.246 44.156 169.578 44.832 168.754 44.832 167.93 44.832 167.258 44.156 167.258 43.32 167.258 42.488 167.93 41.813 168.754 41.813 169.578 41.813 170.246 42.488 170.246 43.32ZM170.246 43.32" fill="#8073b0"/>
<path d="M155.52 74.766C155.52 75.602 154.852 76.277 154.027 76.277 153.203 76.277 152.531 75.602 152.531 74.766 152.531 73.934 153.203 73.258 154.027 73.258 154.852 73.258 155.52 73.934 155.52 74.766ZM155.52 74.766" fill="#8073b0"/>
<path d="M154.918 65.977C154.918 66.809 154.25 67.484 153.426 67.484 152.602 67.484 151.93 66.809 151.93 65.977 151.93 65.141 152.602 64.465 153.426 64.465 154.25 64.465 154.918 65.141 154.918 65.977ZM154.918 65.977" fill="#8073b0"/>
<path d="M162.746 24.168C162.746 25 162.078 25.676 161.254 25.676 160.43 25.676 159.758 25 159.758 24.168 159.758 23.332 160.43 22.656 161.254 22.656 162.078 22.656 162.746 23.332 162.746 24.168ZM162.746 24.168" fill="#8073b0"/>
<path d="M172.5 20.848C172.5 21.68 171.832 22.359 171.008 22.359 170.18 22.359 169.512 21.68 169.512 20.848 169.512 20.012 170.18 19.336 171.008 19.336 171.832 19.336 172.5 20.012 172.5 20.848ZM172.5 20.848" fill="#8073b0"/>
<path d="M155.949 42.578C155.949 43.414 155.281 44.09 154.457 44.09 153.629 44.09 152.961 43.414 152.961 42.578 152.961 41.742 153.629 41.066 154.457 41.066 155.281 41.066 155.949 41.742 155.949 42.578ZM155.949 42.578" fill="#8073b0"/>
<path d="M133.48 21.098C133.48 21.934 132.809 22.609 131.984 22.609 131.16 22.609 130.488 21.934 130.488 21.098 130.488 20.266 131.16 19.586 131.984 19.586 132.809 19.586 133.48 20.266 133.48 21.098ZM133.48 21.098" fill="#8073b0"/>
<path d="M163.691 67.813C163.691 68.648 163.023 69.324 162.195 69.324 161.371 69.324 160.703 68.648 160.703 67.813 160.703 66.98 161.371 66.301 162.195 66.301 163.023 66.301 163.691 66.98 163.691 67.813ZM163.691 67.813" fill="#8073b0"/>
<path d="M141.445 86.344C141.445 87.176 140.777 87.855 139.953 87.855 139.125 87.855 138.457 87.176 138.457 86.344 138.457 85.508 139.125 84.832 139.953 84.832 140.777 84.832 141.445 85.508 141.445 86.344ZM141.445 86.344" fill="#8073b0"/>
<path d="M123.605 75.48C123.605 76.316 122.938 76.992 122.113 76.992 121.289 76.992 120.617 76.316 120.617 75.48 120.617 74.645 121.289 73.969 122.113 73.969 122.938 73.969 123.605 74.645 123.605 75.48ZM123.605 75.48" fill="#8073b0"/>
<path d="M146.25 26.684C146.25 27.52 145.578 28.195 144.754 28.195 143.93 28.195 143.262 27.52 143.262 26.684 143.262 25.852 143.93 25.172 144.754 25.172 145.578 25.172 146.25 25.852 146.25 26.684ZM146.25 26.684" fill="#8073b0"/>
<path d="M155.949 23.879C155.949 24.715 155.281 25.391 154.457 25.391 153.629 25.391 152.961 24.715 152.961 23.879 152.961 23.043 153.629 22.367 154.457 22.367 155.281 22.367 155.949 23.043 155.949 23.879ZM155.949 23.879" fill="#8073b0"/>
<path d="M142.691 18.023C142.691 18.855 142.023 19.535 141.199 19.535 140.371 19.535 139.703 18.855 139.703 18.023 139.703 17.188 140.371 16.512 141.199 16.512 142.023 16.512 142.691 17.188 142.691 18.023ZM142.691 18.023" fill="#8073b0"/>
<path d="M166.367 35.82C166.367 36.656 165.695 37.332 164.871 37.332 164.047 37.332 163.379 36.656 163.379 35.82 163.379 34.984 164.047 34.309 164.871 34.309 165.695 34.309 166.367 34.984 166.367 35.82ZM166.367 35.82" fill="#8073b0"/>
<path d="M158.996 33.133C158.996 33.969 158.328 34.645 157.504 34.645 156.68 34.645 156.008 33.969 156.008 33.133 156.008 32.301 156.68 31.625 157.504 31.625 158.328 31.625 158.996 32.301 158.996 33.133ZM158.996 33.133" fill="#8073b0"/>
<path d="M170.688 50.133C170.688 50.969 170.02 51.645 169.191 51.645 168.367 51.645 167.699 50.969 167.699 50.133 167.699 49.301 168.367 48.621 169.191 48.621 170.02 48.621 170.688 49.301 170.688 50.133ZM170.688 50.133" fill="#8073b0"/>
<path d="M130.094 29.879C130.094 30.715 129.422 31.391 128.598 31.391 127.773 31.391 127.105 30.715 127.105 29.879 127.105 29.047 127.773 28.367 128.598 28.367 129.422 28.367 130.094 29.047 130.094 29.879ZM130.094 29.879" fill="#8073b0"/>
<path d="M105.168 45.824C105.168 46.656 104.5 47.336 103.676 47.336 102.848 47.336 102.18 46.656 102.18 45.824 102.18 44.988 102.848 44.313 103.676 44.313 104.5 44.313 105.168 44.988 105.168 45.824ZM105.168 45.824" fill="#8073b0"/>
<path d="M115.109 75.48C115.109 76.316 114.441 76.992 113.617 76.992 112.789 76.992 112.121 76.316 112.121 75.48 112.121 74.645 112.789 73.969 113.617 73.969 114.441 73.969 115.109 74.645 115.109 75.48ZM115.109 75.48" fill="#8073b0"/>
<path d="M131.43 83.742C131.43 84.574 130.762 85.25 129.938 85.25 129.113 85.25 128.441 84.574 128.441 83.742 128.441 82.906 129.113 82.23 129.938 82.23 130.762 82.23 131.43 82.906 131.43 83.742ZM131.43 83.742" fill="#8073b0"/>
<path d="M136.168 78.152C136.168 78.984 135.5 79.66 134.676 79.66 133.848 79.66 133.18 78.984 133.18 78.152 133.18 77.316 133.848 76.641 134.676 76.641 135.5 76.641 136.168 77.316 136.168 78.152ZM136.168 78.152" fill="#8073b0"/>
<path d="M148.934 33.699C148.934 34.535 148.266 35.211 147.441 35.211 146.613 35.211 145.945 34.535 145.945 33.699 145.945 32.867 146.613 32.188 147.441 32.188 148.266 32.188 148.934 32.867 148.934 33.699ZM148.934 33.699" fill="#8073b0"/>
<path d="M166.066 85.883C166.066 86.719 165.398 87.395 164.574 87.395 163.75 87.395 163.078 86.719 163.078 85.883 163.078 85.047 163.75 84.371 164.574 84.371 165.398 84.371 166.066 85.047 166.066 85.883ZM166.066 85.883" fill="#8073b0"/>
<path d="M155.227 83.824C155.227 84.656 154.555 85.332 153.73 85.332 152.906 85.332 152.234 84.656 152.234 83.824 152.234 82.988 152.906 82.313 153.73 82.313 154.555 82.313 155.227 82.988 155.227 83.824ZM155.227 83.824" fill="#8073b0"/>
<path d="M124.926 17.23C124.926 18.063 124.258 18.742 123.43 18.742 122.605 18.742 121.938 18.063 121.938 17.23 121.938 16.395 122.605 15.719 123.43 15.719 124.258 15.719 124.926 16.395 124.926 17.23ZM124.926 17.23" fill="#8073b0"/>
<path d="M122.113 68.531C122.113 69.363 121.445 70.043 120.617 70.043 119.793 70.043 119.125 69.363 119.125 68.531 119.125 67.695 119.793 67.02 120.617 67.02 121.445 67.02 122.113 67.695 122.113 68.531ZM122.113 68.531" fill="#8073b0"/>
<path d="M148.594 76.277C148.594 77.113 147.926 77.789 147.102 77.789 146.273 77.789 145.605 77.113 145.605 76.277 145.605 75.445 146.273 74.766 147.102 74.766 147.926 74.766 148.594 75.445 148.594 76.277ZM148.594 76.277" fill="#8073b0"/>
<path d="M157.504 48.945C157.504 49.781 156.836 50.457 156.008 50.457 155.184 50.457 154.516 49.781 154.516 48.945 154.516 48.113 155.184 47.434 156.008 47.434 156.836 47.434 157.504 48.113 157.504 48.945ZM157.504 48.945" fill="#8073b0"/>
<path d="M135.82 37.961C135.82 38.797 135.152 39.473 134.324 39.473 133.5 39.473 132.832 38.797 132.832 37.961 132.832 37.125 133.5 36.449 134.324 36.449 135.152 36.449 135.82 37.125 135.82 37.961ZM135.82 37.961" fill="#8073b0"/>
<path d="M203.758 39.113C203.758 39.949 203.09 40.625 202.262 40.625 201.438 40.625 200.77 39.949 200.77 39.113 200.77 38.277 201.438 37.602 202.262 37.602 203.09 37.602 203.758 38.277 203.758 39.113ZM203.758 39.113" fill="#8073b0"/>
<path d="M210.957 35.262C210.957 36.094 210.285 36.773 209.461 36.773 208.637 36.773 207.965 36.094 207.965 35.262 207.965 34.426 208.637 33.75 209.461 33.75 210.285 33.75 210.957 34.426 210.957 35.262ZM210.957 35.262" fill="#8073b0"/>
<path d="M214.676 25.223C214.676 26.059 214.008 26.734 213.184 26.734 212.355 26.734 211.688 26.059 211.688 25.223 211.688 24.387 212.355 23.711 213.184 23.711 214.008 23.711 214.676 24.387 214.676 25.223ZM214.676 25.223" fill="#8073b0"/>
<path d="M195.191 21.137C195.191 21.969 194.52 22.645 193.695 22.645 192.871 22.645 192.199 21.969 192.199 21.137 192.199 20.301 192.871 19.625 193.695 19.625 194.52 19.625 195.191 20.301 195.191 21.137ZM195.191 21.137" fill="#8073b0"/>
<path d="M197.285 34.645C197.285 35.48 196.617 36.156 195.793 36.156 194.965 36.156 194.297 35.48 194.297 34.645 194.297 33.813 194.965 33.133 195.793 33.133 196.617 33.133 197.285 33.813 197.285 34.645ZM197.285 34.645" fill="#8073b0"/>
<path d="M199.301 55.863C199.301 56.699 198.633 57.375 197.805 57.375 196.98 57.375 196.313 56.699 196.313 55.863 196.313 55.031 196.98 54.355 197.805 54.355 198.633 54.355 199.301 55.031 199.301 55.863ZM199.301 55.863" fill="#8073b0"/>
<path d="M196.574 68.332C196.574 69.168 195.906 69.844 195.082 69.844 194.254 69.844 193.586 69.168 193.586 68.332 193.586 67.5 194.254 66.82 195.082 66.82 195.906 66.82 196.574 67.5 196.574 68.332ZM196.574 68.332" fill="#8073b0"/>
<path d="M197.406 80.09C197.406 80.922 196.738 81.602 195.914 81.602 195.09 81.602 194.418 80.922 194.418 80.09 194.418 79.254 195.09 78.578 195.914 78.578 196.738 78.578 197.406 79.254 197.406 80.09ZM197.406 80.09" fill="#8073b0"/>
<path d="M203.102 82.969C203.102 83.801 202.434 84.48 201.605 84.48 200.781 84.48 200.113 83.801 200.113 82.969 200.113 82.133 200.781 81.457 201.605 81.457 202.434 81.457 203.102 82.133 203.102 82.969ZM203.102 82.969" fill="#8073b0"/>
<path d="M205.617 28.418C205.617 29.254 204.945 29.93 204.121 29.93 203.297 29.93 202.629 29.254 202.629 28.418 202.629 27.582 203.297 26.906 204.121 26.906 204.945 26.906 205.617 27.582 205.617 28.418ZM205.617 28.418" fill="#8073b0"/>
<path d="M227.59 25.723C227.59 26.555 226.922 27.234 226.098 27.234 225.273 27.234 224.602 26.555 224.602 25.723 224.602 24.887 225.273 24.211 226.098 24.211 226.922 24.211 227.59 24.887 227.59 25.723ZM227.59 25.723" fill="#8073b0"/>
<path d="M245.469 16.438C245.469 17.273 244.797 17.949 243.973 17.949 243.148 17.949 242.477 17.273 242.477 16.438 242.477 15.602 243.148 14.926 243.973 14.926 244.797 14.926 245.469 15.602 245.469 16.438ZM245.469 16.438" fill="#8073b0"/>
<path d="M212.422 83.543C212.422 84.379 211.754 85.055 210.93 85.055 210.102 85.055 209.434 84.379 209.434 83.543 209.434 82.707 210.102 82.031 210.93 82.031 211.754 82.031 212.422 82.707 212.422 83.543ZM212.422 83.543" fill="#8073b0"/>
<path d="M203.164 63.223C203.164 64.055 202.496 64.734 201.672 64.734 200.844 64.734 200.176 64.055 200.176 63.223 200.176 62.387 200.844 61.711 201.672 61.711 202.496 61.711 203.164 62.387 203.164 63.223ZM203.164 63.223" fill="#8073b0"/>
<path d="M210.008 64.293C210.008 65.129 209.34 65.805 208.512 65.805 207.688 65.805 207.02 65.129 207.02 64.293 207.02 63.457 207.688 62.781 208.512 62.781 209.34 62.781 210.008 63.457 210.008 64.293ZM210.008 64.293" fill="#8073b0"/>
<path d="M205.617 47.02C205.617 47.852 204.945 48.531 204.121 48.531 203.297 48.531 202.629 47.852 202.629 47.02 202.629 46.184 203.297 45.508 204.121 45.508 204.945 45.508 205.617 46.184 205.617 47.02ZM205.617 47.02" fill="#8073b0"/>
<path d="M218.91 38.152C218.91 38.988 218.242 39.664 217.414 39.664 216.59 39.664 215.922 38.988 215.922 38.152 215.922 37.32 216.59 36.641 217.414 36.641 218.242 36.641 218.91 37.32 218.91 38.152ZM218.91 38.152" fill="#8073b0"/>
<path d="M208.113 91.098C208.113 91.934 207.445 92.609 206.617 92.609 205.793 92.609 205.125 91.934 205.125 91.098 205.125 90.266 205.793 89.59 206.617 89.59 207.445 89.59 208.113 90.266 208.113 91.098ZM208.113 91.098" fill="#8073b0"/>
<path d="M224.086 90.762C224.086 89.93 223.418 89.25 222.594 89.25 221.766 89.25 221.098 89.93 221.098 90.762 221.098 91.598 221.766 92.273 222.594 92.273 223.418 92.273 224.086 91.598 224.086 90.762ZM224.086 90.762" fill="#8073b0"/>
<path d="M263.563 72.543C263.563 71.707 262.891 71.031 262.066 71.031 261.242 71.031 260.57 71.707 260.57 72.543 260.57 73.375 261.242 74.055 262.066 74.055 262.891 74.055 263.563 73.375 263.563 72.543ZM263.563 72.543" fill="#8073b0"/>
<path d="M266.641 89.445C266.641 88.609 265.973 87.934 265.148 87.934 264.324 87.934 263.652 88.609 263.652 89.445 263.652 90.277 264.324 90.957 265.148 90.957 265.973 90.957 266.641 90.277 266.641 89.445ZM266.641 89.445" fill="#8073b0"/>
<path d="M264.512 62.234C264.512 61.398 263.84 60.723 263.016 60.723 262.191 60.723 261.523 61.398 261.523 62.234 261.523 63.066 262.191 63.746 263.016 63.746 263.84 63.746 264.512 63.066 264.512 62.234ZM264.512 62.234" fill="#8073b0"/>
<path d="M265.578 35.262C265.578 34.426 264.91 33.75 264.086 33.75 263.258 33.75 262.59 34.426 262.59 35.262 262.59 36.094 263.258 36.773 264.086 36.773 264.91 36.773 265.578 36.094 265.578 35.262ZM265.578 35.262" fill="#8073b0"/>
<path d="M261.293 28.418C261.293 27.582 260.621 26.906 259.797 26.906 258.973 26.906 258.305 27.582 258.305 28.418 258.305 29.254 258.973 29.93 259.797 29.93 260.621 29.93 261.293 29.254 261.293 28.418ZM261.293 28.418" fill="#8073b0"/>
<path d="M255.133 78.117C255.133 78.949 254.465 79.625 253.637 79.625 252.813 79.625 252.145 78.949 252.145 78.117 252.145 77.281 252.813 76.605 253.637 76.605 254.465 76.605 255.133 77.281 255.133 78.117ZM255.133 78.117" fill="#8073b0"/>
<path d="M241.629 89.035C241.629 89.867 240.961 90.543 240.133 90.543 239.309 90.543 238.641 89.867 238.641 89.035 238.641 88.199 239.309 87.523 240.133 87.523 240.961 87.523 241.629 88.199 241.629 89.035ZM241.629 89.035" fill="#8073b0"/>
<path d="M250.316 59.512C250.316 60.344 249.648 61.023 248.82 61.023 247.996 61.023 247.328 60.344 247.328 59.512 247.328 58.676 247.996 58 248.82 58 249.648 58 250.316 58.676 250.316 59.512ZM250.316 59.512" fill="#8073b0"/>
<path d="M256.777 55.563C256.777 56.395 256.105 57.074 255.281 57.074 254.457 57.074 253.785 56.395 253.785 55.563 253.785 54.727 254.457 54.051 255.281 54.051 256.105 54.051 256.777 54.727 256.777 55.563ZM256.777 55.563" fill="#8073b0"/>
<path d="M261.293 43.371C261.293 44.207 260.621 44.883 259.797 44.883 258.973 44.883 258.305 44.207 258.305 43.371 258.305 42.535 258.973 41.859 259.797 41.859 260.621 41.859 261.293 42.535 261.293 43.371ZM261.293 43.371" fill="#8073b0"/>
<path d="M246.566 74.816C246.566 75.652 245.898 76.328 245.07 76.328 244.246 76.328 243.578 75.652 243.578 74.816 243.578 73.98 244.246 73.305 245.07 73.305 245.898 73.305 246.566 73.98 246.566 74.816ZM246.566 74.816" fill="#8073b0"/>
<path d="M245.965 66.023C245.965 66.859 245.293 67.535 244.469 67.535 243.645 67.535 242.977 66.859 242.977 66.023 242.977 65.188 243.645 64.512 244.469 64.512 245.293 64.512 245.965 65.188 245.965 66.023ZM245.965 66.023" fill="#8073b0"/>
<path d="M253.793 24.215C253.793 25.051 253.121 25.727 252.297 25.727 251.473 25.727 250.805 25.051 250.805 24.215 250.805 23.379 251.473 22.703 252.297 22.703 253.121 22.703 253.793 23.379 253.793 24.215ZM253.793 24.215" fill="#8073b0"/>
<path d="M263.543 20.895C263.543 21.73 262.875 22.406 262.051 22.406 261.227 22.406 260.555 21.73 260.555 20.895 260.555 20.063 261.227 19.383 262.051 19.383 262.875 19.383 263.543 20.063 263.543 20.895ZM263.543 20.895" fill="#8073b0"/>
<path d="M246.996 42.629C246.996 43.461 246.324 44.141 245.5 44.141 244.676 44.141 244.008 43.461 244.008 42.629 244.008 41.793 244.676 41.117 245.5 41.117 246.324 41.117 246.996 41.793 246.996 42.629ZM246.996 42.629" fill="#8073b0"/>
<path d="M224.523 21.148C224.523 21.984 223.855 22.66 223.027 22.66 222.203 22.66 221.535 21.984 221.535 21.148 221.535 20.313 222.203 19.637 223.027 19.637 223.855 19.637 224.523 20.313 224.523 21.148ZM224.523 21.148" fill="#8073b0"/>
<path d="M254.734 67.863C254.734 68.699 254.066 69.375 253.242 69.375 252.414 69.375 251.746 68.699 251.746 67.863 251.746 67.027 252.414 66.352 253.242 66.352 254.066 66.352 254.734 67.027 254.734 67.863ZM254.734 67.863" fill="#8073b0"/>
<path d="M232.492 86.391C232.492 87.227 231.82 87.902 230.996 87.902 230.172 87.902 229.5 87.227 229.5 86.391 229.5 85.559 230.172 84.879 230.996 84.879 231.82 84.879 232.492 85.559 232.492 86.391ZM232.492 86.391" fill="#8073b0"/>
<path d="M214.652 75.527C214.652 76.363 213.984 77.039 213.156 77.039 212.332 77.039 211.664 76.363 211.664 75.527 211.664 74.695 212.332 74.02 213.156 74.02 213.984 74.02 214.652 74.695 214.652 75.527ZM214.652 75.527" fill="#8073b0"/>
<path d="M237.293 26.734C237.293 27.57 236.625 28.246 235.797 28.246 234.973 28.246 234.305 27.57 234.305 26.734 234.305 25.898 234.973 25.223 235.797 25.223 236.625 25.223 237.293 25.898 237.293 26.734ZM237.293 26.734" fill="#8073b0"/>
<path d="M246.996 23.926C246.996 24.762 246.324 25.438 245.5 25.438 244.676 25.438 244.008 24.762 244.008 23.926 244.008 23.094 244.676 22.418 245.5 22.418 246.324 22.418 246.996 23.094 246.996 23.926ZM246.996 23.926" fill="#8073b0"/>
<path d="M233.734 18.07C233.734 18.906 233.066 19.582 232.242 19.582 231.418 19.582 230.746 18.906 230.746 18.07 230.746 17.238 231.418 16.559 232.242 16.559 233.066 16.559 233.734 17.238 233.734 18.07ZM233.734 18.07" fill="#8073b0"/>
<path d="M257.41 35.867C257.41 36.703 256.742 37.379 255.914 37.379 255.09 37.379 254.422 36.703 254.422 35.867 254.422 35.035 255.09 34.359 255.914 34.359 256.742 34.359 257.41 35.035 257.41 35.867ZM257.41 35.867" fill="#8073b0"/>
<path d="M250.043 33.184C250.043 34.02 249.371 34.695 248.547 34.695 247.723 34.695 247.055 34.02 247.055 33.184 247.055 32.348 247.723 31.672 248.547 31.672 249.371 31.672 250.043 32.348 250.043 33.184ZM250.043 33.184" fill="#8073b0"/>
<path d="M261.73 50.184C261.73 51.02 261.063 51.695 260.238 51.695 259.41 51.695 258.742 51.02 258.742 50.184 258.742 49.348 259.41 48.672 260.238 48.672 261.063 48.672 261.73 49.348 261.73 50.184ZM261.73 50.184" fill="#8073b0"/>
<path d="M221.137 29.93C221.137 30.766 220.469 31.441 219.641 31.441 218.816 31.441 218.148 30.766 218.148 29.93 218.148 29.094 218.816 28.418 219.641 28.418 220.469 28.418 221.137 29.094 221.137 29.93ZM221.137 29.93" fill="#8073b0"/>
<path d="M196.211 45.871C196.211 46.707 195.543 47.383 194.719 47.383 193.895 47.383 193.223 46.707 193.223 45.871 193.223 45.039 193.895 44.363 194.719 44.363 195.543 44.363 196.211 45.039 196.211 45.871ZM196.211 45.871" fill="#8073b0"/>
<path d="M206.152 75.527C206.152 76.363 205.484 77.039 204.66 77.039 203.836 77.039 203.164 76.363 203.164 75.527 203.164 74.695 203.836 74.02 204.66 74.02 205.484 74.02 206.152 74.695 206.152 75.527ZM206.152 75.527" fill="#8073b0"/>
<path d="M222.477 83.789C222.477 84.625 221.805 85.301 220.98 85.301 220.156 85.301 219.488 84.625 219.488 83.789 219.488 82.957 220.156 82.277 220.98 82.277 221.805 82.277 222.477 82.957 222.477 83.789ZM222.477 83.789" fill="#8073b0"/>
<path d="M227.215 78.199C227.215 79.035 226.543 79.711 225.719 79.711 224.895 79.711 224.227 79.035 224.227 78.199 224.227 77.363 224.895 76.688 225.719 76.688 226.543 76.688 227.215 77.363 227.215 78.199ZM227.215 78.199" fill="#8073b0"/>
<path d="M239.977 33.75C239.977 34.582 239.309 35.262 238.484 35.262 237.66 35.262 236.988 34.582 236.988 33.75 236.988 32.914 237.66 32.238 238.484 32.238 239.309 32.238 239.977 32.914 239.977 33.75ZM239.977 33.75" fill="#8073b0"/>
<path d="M257.113 85.934C257.113 86.766 256.441 87.441 255.617 87.441 254.793 87.441 254.125 86.766 254.125 85.934 254.125 85.098 254.793 84.422 255.617 84.422 256.441 84.422 257.113 85.098 257.113 85.934ZM257.113 85.934" fill="#8073b0"/>
<path d="M246.27 83.871C246.27 84.707 245.602 85.383 244.773 85.383 243.949 85.383 243.281 84.707 243.281 83.871 243.281 83.039 243.949 82.359 244.773 82.359 245.602 82.359 246.27 83.039 246.27 83.871ZM246.27 83.871" fill="#8073b0"/>
<path d="M215.969 17.277C215.969 18.113 215.301 18.789 214.477 18.789 213.648 18.789 212.98 18.113 212.98 17.277 212.98 16.445 213.648 15.766 214.477 15.766 215.301 15.766 215.969 16.445 215.969 17.277ZM215.969 17.277" fill="#8073b0"/>
<path d="M213.156 68.578C213.156 69.414 212.488 70.09 211.664 70.09 210.836 70.09 210.168 69.414 210.168 68.578 210.168 67.746 210.836 67.07 211.664 67.07 212.488 67.07 213.156 67.746 213.156 68.578ZM213.156 68.578" fill="#8073b0"/>
<path d="M239.641 76.328C239.641 77.164 238.969 77.84 238.145 77.84 237.32 77.84 236.652 77.164 236.652 76.328 236.652 75.492 237.32 74.816 238.145 74.816 238.969 74.816 239.641 75.492 239.641 76.328ZM239.641 76.328" fill="#8073b0"/>
<path d="M248.547 48.996C248.547 49.832 247.879 50.508 247.055 50.508 246.227 50.508 245.559 49.832 245.559 48.996 245.559 48.16 246.227 47.484 247.055 47.484 247.879 47.484 248.547 48.16 248.547 48.996ZM248.547 48.996" fill="#8073b0"/>
<path d="M226.863 38.008C226.863 38.844 226.195 39.52 225.371 39.52 224.543 39.52 223.875 38.844 223.875 38.008 223.875 37.176 224.543 36.5 225.371 36.5 226.195 36.5 226.863 37.176 226.863 38.008ZM226.863 38.008" fill="#8073b0"/>
<text xml:space="preserve" transform="matrix(.9944044 0 0 1.0056272 0 0)" font-size="8.079137" font-family="ArialMT"><tspan y="7.187343" x="8.9707 13.010269 19.74019 24.232192 26.02576 27.81933 30.06533 32.311334 36.3509 40.8429 45.3349 48.025255 52.06482 56.556825 58.802824 63.294824 67.78682 70.03282 74.52482 78.56439 83.05639 101.71112 103.504688 107.99669 110.68704 115.17904 119.67104 121.91704 124.16304 128.65505 133.14704 137.63904 141.6786 146.1706 148.4166 152.90859 157.40059 159.64658 164.13858 168.17815 172.67014 199.04044 203.08 207.57199 210.26235 212.9527 217.44469 221.48426 223.73026 228.22225 232.71424 234.96024 239.45223 243.94423 246.19022 250.68222 254.72179 259.21379">small, sparse datasetlarge, dense datasetcorrected dataset</tspan></text>
<text xml:space="preserve" transform="matrix(.9944044 0 0 1.0056272 0 0)" font-size="7.0692198" font-family="ArialMT"><tspan y="43.517366" x="296.49089 298.45616 302.38664 305.92124 307.8865 309.85176 313.78227 317.71275 319.678 323.60847 325.57374 329.5042 333.4347 335.00407 338.93455 340.89979">test data points</tspan><tspan y="28.38686" x="296.49089 298.45616 300.81019 304.7407 306.31007 310.2405 312.20579 316.13624 320.06675 322.03199 325.96247 327.9277 331.8582 335.7887 337.35807 341.2885 343.25379">train data points</tspan><tspan y="73.736949" x="297.32725 301.2577 305.1882 309.1187 313.0492 315.40327 319.33378 320.9031 322.47248 326.00709 329.9376 331.90284 333.4722 337.4027 341.3332 343.29847 347.2289 351.15943">generalization gap</tspan><tspan y="58.647867" x="296.14918 300.07966 302.43373 306.36424 310.2947 314.22523 318.15574 320.12098 324.05146 327.98194 329.9472 333.87767 335.84294 339.77339 343.7039 345.27326 349.20375 351.16899">pruned data points</tspan></text>
<path d="M281.82 38.719 284.988 41.926 281.82 45.129 278.648 41.926ZM281.82 38.719" fill="#4f72ad"/>
<path transform="matrix(.98884,0,0,1,0,0)" d="M291.294 72.355C291.294 75.832 288.477 78.652 285.001 78.652 281.525 78.652 278.704 75.832 278.704 72.355 278.704 68.879 281.525 66.059 285.001 66.059 288.477 66.059 291.294 68.879 291.294 72.355ZM291.294 72.355" fill="#b9c7df"/>
<path transform="matrix(.98884,0,0,1,0,0)" stroke-width=".575757" stroke-linecap="round" stroke-linejoin="round" fill="none" stroke="#738fbf" d="M291.294 72.355C291.294 75.832 288.477 78.652 285.001 78.652 281.525 78.652 278.704 75.832 278.704 72.355 278.704 68.879 281.525 66.059 285.001 66.059 288.477 66.059 291.294 68.879 291.294 72.355ZM291.294 72.355"/>
<path transform="matrix(.98884,0,0,1,0,0)" d="M285.001 72.355 288.477 67.109ZM285.001 72.355" fill="#4f72ad"/>
<path transform="matrix(.98884,0,0,1,0,0)" stroke-width=".575757" stroke-linecap="round" stroke-linejoin="round" fill="none" stroke="#738fbf" d="M285.001 72.355 288.477 67.109ZM285.001 72.355"/>
<path d="M284.664 57.141C284.664 58.73 283.391 60.02 281.82 60.02 280.246 60.02 278.973 58.73 278.973 57.141 278.973 55.551 280.246 54.262 281.82 54.262 283.391 54.262 284.664 55.551 284.664 57.141ZM284.664 57.141" fill="#bf5254"/>
<path d="M283.242 23.828H288.937V29.585999H283.242Z" fill="#8073b0"/>
<path d="M280.395 26.707C280.395 28.297 279.121 29.586 277.551 29.586 275.977 29.586 274.703 28.297 274.703 26.707 274.703 25.117 275.977 23.828 277.551 23.828 279.121 23.828 280.395 25.117 280.395 26.707ZM280.395 26.707" fill="#8172b3"/>
</g>
</svg>
